<svg xmlns="http://www.w3.org/2000/svg" viewBox="0 0 100 100">
<defs><filter id="hd" x="-5%" y="-5%" width="110%" height="110%"><feTurbulence type="fractalNoise" baseFrequency="0.05" numOctaves="2" seed="29" result="n"/><feDisplacementMap in="SourceGraphic" in2="n" scale="1.4" xChannelSelector="R" yChannelSelector="G"/></filter></defs>
<g filter="url(#hd)" stroke-linecap="round" stroke-linejoin="round"><path d="M20 80 C 22 40, 40 20, 50 18 C 60 20, 78 40, 80 80 C 74 60, 70 56, 66 52 C 68 70, 64 76, 62 80 C 60 60, 56 52, 52 46 C 52 64, 48 74, 46 82 C 44 62, 40 54, 36 50 C 36 66, 30 74, 28 80 C 28 62, 24 70, 20 80 Z" fill="#fff" fill-rule="evenodd" stroke="#111" stroke-width="2.1"/><path d="M28 44 C 36 34, 44 30, 52 30 C 60 30, 68 36, 72 44 C 66 40, 58 42, 52 46 C 46 42, 36 40, 28 44 Z" fill="#9a9a9a" fill-rule="evenodd" stroke="none" stroke-width="0"/><path d="M62 80 C 60 60, 56 52, 52 46 C 56 56, 58 66, 58 80 Z M46 82 C 44 62, 40 54, 36 50 C 40 60, 42 70, 42 82 Z" fill="#c4c4c4" fill-rule="evenodd" stroke="none" stroke-width="0"/><path d="M30 40 C 40 30, 60 30, 70 40" stroke="#fff" stroke-width="1.2" fill="none"/></g></svg>