<svg xmlns="http://www.w3.org/2000/svg" viewBox="0 0 100 100">
<defs><filter id="hd" x="-5%" y="-5%" width="110%" height="110%"><feTurbulence type="fractalNoise" baseFrequency="0.05" numOctaves="2" seed="44" result="n"/><feDisplacementMap in="SourceGraphic" in2="n" scale="1.4" xChannelSelector="R" yChannelSelector="G"/></filter></defs>
<g filter="url(#hd)" stroke-linecap="round" stroke-linejoin="round"><path d="M40 20 H 68 L 66 76 H 42 Z" stroke="#111" stroke-width="1.8" fill="none"/><ellipse cx="54" cy="20" rx="14" ry="4" stroke="#111" stroke-width="1.8" fill="none"/><path d="M30 40 C 22 48, 22 62, 30 70 C 34 78, 44 80, 50 78 L 70 58 C 74 54, 70 48, 66 50 L 60 56 M30 40 C 34 34, 40 36, 40 40 L 38 50 L 62 44 C 68 42, 70 50, 64 52 M40 48 L 62 42 M64 52 C 70 54, 68 62, 62 62 L 48 66 M60 64 C 66 66, 62 72, 56 72 L 46 74" stroke="#111" stroke-width="2" fill="none"/></g></svg>