<svg xmlns="http://www.w3.org/2000/svg" viewBox="0 0 100 100">
<defs><filter id="hd" x="-5%" y="-5%" width="110%" height="110%"><feTurbulence type="fractalNoise" baseFrequency="0.05" numOctaves="2" seed="49" result="n"/><feDisplacementMap in="SourceGraphic" in2="n" scale="1.4" xChannelSelector="R" yChannelSelector="G"/></filter></defs>
<g filter="url(#hd)" stroke-linecap="round" stroke-linejoin="round"><circle cx="50" cy="10" r="6" stroke="#111" stroke-width="1.6" fill="none"/><path d="M50 16 V 22 M40 24 H 60 M50 22 V 50 M40 24 C 38 36, 36 44, 36 52 M60 24 C 62 36, 64 44, 64 52 M42 50 H 58 M42 50 L 40 70 L 40 92 M58 50 L 60 70 L 60 92 M50 50 L 48 62 M36 52 L 34 64 M64 52 L 66 64" stroke="#111" stroke-width="1.6" fill="none"/><path d="M74 22 H 78" stroke="#111" stroke-width="1" fill="none"/><path d="M74 36 H 78" stroke="#111" stroke-width="1" fill="none"/><path d="M74 50 H 78" stroke="#111" stroke-width="1" fill="none"/><path d="M74 64 H 78" stroke="#111" stroke-width="1" fill="none"/><path d="M74 78 H 78" stroke="#111" stroke-width="1" fill="none"/><path d="M74 92 H 78" stroke="#111" stroke-width="1" fill="none"/><text x="80" y="24" font-size="4.5" fill="#111">2</text><text x="80" y="52" font-size="4.5" fill="#111">4</text><text x="80" y="80" font-size="4.5" fill="#111">6</text><text x="80" y="94" font-size="4.5" fill="#111">7頭身</text></g></svg>